# xmcd CD database file
#
# Track frame offsets:
#	150
#	31261
#	53347
#	72109
#	97680
#	119028
#	138323
#	162915
#	196282
#	215813
#
# Disc length: 3474 seconds
#
# Revision: 0
# Processed by: cddbd v1.5.2PL0 Copyright (c) Steve Scherf et al.
# Submitted via: CDex 1.70beta2
#
DISCID=860d900a
DTITLE=JOHN MCLAUGHLIN - JOHN MCLAUGHLIN - LA CHITARRA DEL NUOVO JAZZ
DYEAR=1900
DGENRE=Jazz
TTITLE0=AFRO BLUE
TTITLE1=MILES DAVIS
TTITLE2=ASPAN
TTITLE3=JOZY
TTITLE4=ARE YOU THE ONE?
TTITLE5=THE DOLPHIN
TTITLE6=1 NITE STAND
TTITLE7=DJANGO
TTITLE8=WE WILL MEET AGAIN
TTITLE9=ONE WORD
EXTD=
EXTT0=
EXTT1=
EXTT2=
EXTT3=
EXTT4=
EXTT5=
EXTT6=
EXTT7=
EXTT8=
EXTT9=
PLAYORDER=
